<svg xmlns="http://www.w3.org/2000/svg" width="30" height="30" viewBox="0 0 30 30">
  <g fill="none" fill-rule="evenodd" transform="translate(1 1)">
    <circle cx="14" cy="14" r="14" fill="#5429DE" stroke="#FFF"/>
    <path fill="#FFF" d="M20.862352,11.1929412 L19.822352,10.1529412 C19.7203918,10.0509791 19.6031386,10 19.4705882,10 C19.3380379,10 19.2207846,10.0509791 19.1188245,10.1529412 L12.8635294,16.4082343 L9.88117647,13.4105873 C9.77921516,13.3188226 9.6619615,13.2729412 9.52941176,13.2729412 C9.39686203,13.2729412 9.27960837,13.3188226 9.17764706,13.4105873 L8.13764706,14.4505873 C8.0458819,14.5525493 8,14.6698026 8,14.8023529 C8,14.9349033 8.0458819,15.0521565 8.13764706,15.1541186 L12.5117657,19.5435294 C12.6035304,19.6454907 12.7182348,19.6964706 12.8558828,19.6964706 C12.9935309,19.6964706 13.1082353,19.6454907 13.2,19.5435294 L20.862352,11.8964706 C20.9541186,11.7945085 21,11.6747064 21,11.5370583 C21,11.3994103 20.9541186,11.2847059 20.862352,11.1929412 Z"/>
  </g>
</svg>
