<svg xmlns="http://www.w3.org/2000/svg" width="91" height="11" viewBox="0 0 91 11">
  <path fill-rule="evenodd" d="M2.29006622,10.3363384 C1.5568396,9.89389515 0.991861806,9.25821034 0.595115893,8.42926491 C0.198369981,7.60031948 1.11512467e-16,6.62136487 0,5.49237171 C1.11512467e-16,4.37354965 0.198369981,3.39968052 0.595115893,2.57073509 C0.991861806,1.74178966 1.5568396,1.10610485 2.29006622,0.663661581 C3.02329284,0.221218315 3.89210314,0 4.89652317,0 C5.56948459,0 6.20477073,0.109337788 6.80240065,0.328016644 C7.40003057,0.546695499 7.91981014,0.859452427 8.36175495,1.26629681 C8.52246216,1.41886345 8.60281456,1.5968552 8.60281456,1.80027739 C8.60281456,1.94267293 8.56263836,2.06726715 8.48228475,2.1740638 C8.40193115,2.28086045 8.30651268,2.33425798 8.19602648,2.33425798 C8.07549607,2.33425798 7.92985735,2.27831771 7.75910595,2.16643551 C7.24685173,1.75959112 6.78231444,1.47480433 6.36548012,1.31206657 C5.94864581,1.14932882 5.46904244,1.06796117 4.92665562,1.06796117 C3.76152838,1.06796117 2.86509695,1.45191479 2.23733443,2.21983356 C1.60957191,2.98775234 1.29569536,4.07858748 1.29569536,5.49237171 C1.29569536,6.91632705 1.60957191,8.01224766 2.23733443,8.78016644 C2.86509695,9.54808521 3.76152838,9.93203883 4.92665562,9.93203883 C5.45899824,9.93203883 5.9360906,9.85067118 6.35794701,9.68793343 C6.77980342,9.52519567 7.24685173,9.24040888 7.75910595,8.83356449 C7.92985735,8.72168229 8.07549607,8.66574202 8.19602648,8.66574202 C8.30651268,8.66574202 8.40193115,8.71659681 8.48228475,8.81830791 C8.56263836,8.920019 8.60281456,9.04715596 8.60281456,9.19972261 C8.60281456,9.4031448 8.52246216,9.58113655 8.36175495,9.73370319 C7.91981014,10.1405476 7.40003057,10.4533045 6.80240065,10.6719834 C6.20477073,10.8906622 5.56948459,11 4.89652317,11 C3.89210314,11 3.02329284,10.7787817 2.29006622,10.3363384 Z M11.774255,10.5117892 C11.2469344,10.1964848 10.8401504,9.74641994 10.5538907,9.16158114 C10.267631,8.57674234 10.1245033,7.89783096 10.1245033,7.12482663 C10.1245033,6.3518223 10.267631,5.67291092 10.5538907,5.08807212 C10.8401504,4.50323332 11.2469344,4.05316847 11.774255,3.73786408 C12.3015755,3.42255968 12.9117515,3.26490985 13.6048013,3.26490985 C14.2978511,3.26490985 14.9105382,3.42255968 15.4428808,3.73786408 C15.9752234,4.05316847 16.3845184,4.50323332 16.6707781,5.08807212 C16.9570378,5.67291092 17.1001655,6.3518223 17.1001655,7.12482663 C17.1001655,7.89783096 16.9570378,8.57674234 16.6707781,9.16158114 C16.3845184,9.74641994 15.9752234,10.1964848 15.4428808,10.5117892 C14.9105382,10.8270936 14.2978511,10.9847434 13.6048013,10.9847434 C12.9117515,10.9847434 12.3015755,10.8270936 11.774255,10.5117892 Z M15.2696192,9.23786408 C15.6563209,8.75473637 15.8496689,8.0503976 15.8496689,7.12482663 C15.8496689,6.21959788 15.6538099,5.52034458 15.2620861,5.02704577 C14.8703623,4.53374696 14.3179395,4.28710125 13.6048013,4.28710125 C12.8916631,4.28710125 12.3392404,4.53374696 11.9475165,5.02704577 C11.5557927,5.52034458 11.3599338,6.21959788 11.3599338,7.12482663 C11.3599338,8.04022649 11.5532817,8.74202252 11.9399834,9.23023578 C12.3266851,9.71844904 12.8816189,9.96255201 13.6048013,9.96255201 C14.3279837,9.96255201 14.8829175,9.72099178 15.2696192,9.23786408 Z M19.3977649,10.7940361 C19.2822566,10.6872394 19.2245033,10.5372178 19.2245033,10.3439667 L19.2245033,0.656033287 C19.2245033,0.462782205 19.2822566,0.312760589 19.3977649,0.205963939 C19.5132732,0.0991672885 19.6614229,0.0457697642 19.8422185,0.0457697642 C20.0129699,0.0457697642 20.1560976,0.0991672885 20.271606,0.205963939 C20.3871143,0.312760589 20.4448675,0.462782205 20.4448675,0.656033287 L20.4448675,10.3439667 C20.4448675,10.5372178 20.3871143,10.6872394 20.271606,10.7940361 C20.1560976,10.9008327 20.0129699,10.9542302 19.8422185,10.9542302 C19.6614229,10.9542302 19.5132732,10.9008327 19.3977649,10.7940361 Z M24.2340232,10.5117892 C23.7067027,10.1964848 23.2999186,9.74641994 23.0136589,9.16158114 C22.7273992,8.57674234 22.5842715,7.89783096 22.5842715,7.12482663 C22.5842715,6.3518223 22.7273992,5.67291092 23.0136589,5.08807212 C23.2999186,4.50323332 23.7067027,4.05316847 24.2340232,3.73786408 C24.7613437,3.42255968 25.3715197,3.26490985 26.0645695,3.26490985 C26.7576194,3.26490985 27.3703064,3.42255968 27.902649,3.73786408 C28.4349916,4.05316847 28.8442866,4.50323332 29.1305463,5.08807212 C29.4168061,5.67291092 29.5599338,6.3518223 29.5599338,7.12482663 C29.5599338,7.89783096 29.4168061,8.57674234 29.1305463,9.16158114 C28.8442866,9.74641994 28.4349916,10.1964848 27.902649,10.5117892 C27.3703064,10.8270936 26.7576194,10.9847434 26.0645695,10.9847434 C25.3715197,10.9847434 24.7613437,10.8270936 24.2340232,10.5117892 Z M27.7293874,9.23786408 C28.1160891,8.75473637 28.3094371,8.0503976 28.3094371,7.12482663 C28.3094371,6.21959788 28.1135781,5.52034458 27.7218543,5.02704577 C27.3301305,4.53374696 26.7777078,4.28710125 26.0645695,4.28710125 C25.3514313,4.28710125 24.7990086,4.53374696 24.4072848,5.02704577 C24.015561,5.52034458 23.819702,6.21959788 23.819702,7.12482663 C23.819702,8.04022649 24.0130499,8.74202252 24.3997517,9.23023578 C24.7864534,9.71844904 25.3413871,9.96255201 26.0645695,9.96255201 C26.787752,9.96255201 27.3426857,9.72099178 27.7293874,9.23786408 Z M35.9480132,3.81414702 C35.9480132,3.97688477 35.902815,4.10656447 35.8124172,4.20319001 C35.7220194,4.29981555 35.5663366,4.35829856 35.3453642,4.37864078 L34.8933775,4.42441054 C34.2204161,4.4854372 33.7207246,4.72699743 33.3942881,5.14909847 C33.0678516,5.57119952 32.9046358,6.06703368 32.9046358,6.63661581 L32.9046358,10.3439667 C32.9046358,10.5473889 32.8493935,10.6999533 32.7389073,10.8016644 C32.6284211,10.9033755 32.4827824,10.9542302 32.3019868,10.9542302 C32.1211911,10.9542302 31.9730414,10.9008327 31.8575331,10.7940361 C31.7420248,10.6872394 31.6842715,10.5372178 31.6842715,10.3439667 L31.6842715,3.90568655 C31.6842715,3.71243546 31.7445358,3.56241385 31.8650662,3.4556172 C31.9855966,3.34882055 32.1312353,3.29542302 32.3019868,3.29542302 C32.462694,3.29542302 32.5982886,3.34882055 32.7087748,3.4556172 C32.819261,3.56241385 32.8745033,3.70734999 32.8745033,3.89042996 L32.8745033,4.74479889 C33.0854315,4.29727007 33.384242,3.95654301 33.7709437,3.72260749 C34.1576454,3.48867197 34.6020946,3.35136405 35.1043046,3.31067961 L35.3152318,3.29542302 C35.7370882,3.26490969 35.9480132,3.43781596 35.9480132,3.81414702 Z M45.4096026,10.4660194 C45.4096026,10.6389283 45.3468273,10.768608 45.2212748,10.8550624 C45.0957223,10.9415168 44.9073964,10.9745725 44.6562914,10.9542302 L44.2495033,10.9237171 C43.4459673,10.8626904 42.8533684,10.6185874 42.4716887,10.1914008 C42.0900091,9.76421423 41.8991722,9.11835846 41.8991722,8.25381415 L41.8991722,4.42441054 L40.8897351,4.42441054 C40.7189837,4.42441054 40.5859,4.38118397 40.4904801,4.29472954 C40.3950602,4.20827511 40.347351,4.09385184 40.347351,3.95145631 C40.347351,3.79888967 40.3950602,3.67683818 40.4904801,3.5852982 C40.5859,3.49375821 40.7189837,3.4479889 40.8897351,3.4479889 L41.8991722,3.4479889 L41.8991722,1.72399445 C41.8991722,1.53074337 41.9544145,1.38072175 42.0649007,1.2739251 C42.1753869,1.16712845 42.3260476,1.11373093 42.5168874,1.11373093 C42.697683,1.11373093 42.8433217,1.16712845 42.953808,1.2739251 C43.0642942,1.38072175 43.1195364,1.53074337 43.1195364,1.72399445 L43.1195364,3.4479889 L44.7918874,3.4479889 C44.9525946,3.4479889 45.0806563,3.49375821 45.1760762,3.5852982 C45.2714961,3.67683818 45.3192053,3.79888967 45.3192053,3.95145631 C45.3192053,4.09385184 45.2714961,4.20827511 45.1760762,4.29472954 C45.0806563,4.38118397 44.9525946,4.42441054 44.7918874,4.42441054 L43.1195364,4.42441054 L43.1195364,8.3148405 C43.1195364,8.87425153 43.232532,9.27854707 43.4585265,9.52773925 C43.684521,9.77693144 44.0235077,9.91678209 44.4754967,9.94729542 L44.8822848,9.9778086 C45.2338318,10.0083219 45.4096026,10.1710572 45.4096026,10.4660194 Z M52.5811258,4.00485437 C53.0230706,4.49815318 53.2440397,5.23300483 53.2440397,6.20943135 L53.2440397,10.3439667 C53.2440397,10.5372178 53.1887975,10.6872394 53.0783113,10.7940361 C52.9678251,10.9008327 52.8221863,10.9542302 52.6413907,10.9542302 C52.4505509,10.9542302 52.2998902,10.9008327 52.189404,10.7940361 C52.0789178,10.6872394 52.0236755,10.5372178 52.0236755,10.3439667 L52.0236755,6.23994452 C52.0236755,5.5788224 51.8905918,5.09061646 51.6244205,4.77531207 C51.3582492,4.46000767 50.9338881,4.30235784 50.3513245,4.30235784 C49.6783631,4.30235784 49.1410064,4.51086245 48.7392384,4.92787795 C48.3374704,5.34489344 48.1365894,5.90938155 48.1365894,6.62135922 L48.1365894,10.3439667 C48.1365894,10.5372178 48.0838582,10.6872394 47.978394,10.7940361 C47.8729299,10.9008327 47.7247802,10.9542302 47.5339404,10.9542302 C47.3431006,10.9542302 47.1924399,10.9008327 47.0819537,10.7940361 C46.9714674,10.6872394 46.9162252,10.5372178 46.9162252,10.3439667 L46.9162252,0.640776699 C46.9162252,0.467867836 46.9739785,0.325474438 47.0894868,0.213592233 C47.2049951,0.101710028 47.3531448,0.0457697642 47.5339404,0.0457697642 C47.7247802,0.0457697642 47.8729299,0.0991672885 47.978394,0.205963939 C48.0838582,0.312760589 48.1365894,0.457696727 48.1365894,0.640776699 L48.1365894,4.63800277 C48.3776502,4.19047395 48.7141259,3.84974689 49.1460265,3.61581137 C49.5779271,3.38187585 50.0700855,3.26490985 50.6225166,3.26490985 C51.4863178,3.26490985 52.139181,3.51155555 52.5811258,4.00485437 Z M61.7413907,9.29126214 C61.8217443,9.38280212 61.8619205,9.49976813 61.8619205,9.64216366 C61.8619205,9.8964414 61.6861497,10.1303734 61.3346026,10.3439667 C60.9730114,10.55756 60.5913375,10.7177526 60.1895695,10.8245492 C59.7878015,10.9313459 59.3960836,10.9847434 59.014404,10.9847434 C57.8794093,10.9847434 56.9829779,10.6440164 56.3250828,9.96255201 C55.6671877,9.28108767 55.338245,8.34027415 55.338245,7.14008322 C55.338245,6.37725 55.4838838,5.7034241 55.7751656,5.1185853 C56.0664474,4.5337465 56.4757424,4.07859617 57.0030629,3.75312067 C57.5303834,3.42764516 58.1305154,3.26490985 58.8034768,3.26490985 C59.7576759,3.26490985 60.5160016,3.58020951 61.0784768,4.21081831 C61.640952,4.8414271 61.9221854,5.69578749 61.9221854,6.7739251 C61.9221854,6.9773473 61.8820092,7.12482617 61.8016556,7.21636616 C61.721302,7.30790614 61.5907294,7.35367545 61.4099338,7.35367545 L56.5586093,7.35367545 C56.6490071,9.1031063 57.4675971,9.9778086 59.014404,9.9778086 C59.4061278,9.9778086 59.7426035,9.92441107 60.0238411,9.81761442 C60.3050787,9.71081777 60.6064002,9.56588164 60.9278146,9.38280166 C61.1889638,9.23023502 61.3647346,9.15395284 61.4551324,9.15395284 C61.5656187,9.15395284 61.6610371,9.19972215 61.7413907,9.29126214 Z M57.274255,4.83633842 C56.8875533,5.2431828 56.6590511,5.81784187 56.5887417,6.56033287 L60.8524834,6.56033287 C60.832395,5.80767076 60.6465801,5.23046895 60.2950331,4.82871012 C59.9434861,4.4269513 59.4513277,4.2260749 58.818543,4.2260749 C58.1757142,4.2260749 57.6609567,4.42949404 57.274255,4.83633842 Z M74.6230132,6.20943135 L74.6230132,10.3439667 C74.6230132,10.5372178 74.567771,10.6872394 74.4572848,10.7940361 C74.3467986,10.9008327 74.2011598,10.9542302 74.0203642,10.9542302 C73.8395686,10.9542302 73.6914189,10.9008327 73.5759106,10.7940361 C73.4604023,10.6872394 73.402649,10.5372178 73.402649,10.3439667 L73.402649,6.23994452 C73.402649,5.55848018 73.2821204,5.06518877 73.0410596,4.76005548 C72.7999988,4.45492219 72.4233469,4.30235784 71.9110927,4.30235784 C71.2983965,4.30235784 70.8162821,4.51086245 70.4647351,4.92787795 C70.1131881,5.34489344 69.9374172,5.90938155 69.9374172,6.62135922 L69.9374172,10.3439667 C69.9374172,10.5372178 69.8796639,10.6872394 69.7641556,10.7940361 C69.6486473,10.9008327 69.5004976,10.9542302 69.319702,10.9542302 C69.1389064,10.9542302 68.9932677,10.9008327 68.8827815,10.7940361 C68.7722953,10.6872394 68.717053,10.5372178 68.717053,10.3439667 L68.717053,6.23994452 C68.717053,5.55848018 68.5965244,5.06518877 68.3554636,4.76005548 C68.1144028,4.45492219 67.7327289,4.30235784 67.2104305,4.30235784 C66.6077784,4.30235784 66.1281751,4.51086245 65.771606,4.92787795 C65.4150369,5.34489344 65.236755,5.90938155 65.236755,6.62135922 L65.236755,10.3439667 C65.236755,10.5372178 65.1815127,10.6872394 65.0710265,10.7940361 C64.9605403,10.9008327 64.8149016,10.9542302 64.634106,10.9542302 C64.4533104,10.9542302 64.3051606,10.9008327 64.1896523,10.7940361 C64.074144,10.6872394 64.0163907,10.5372178 64.0163907,10.3439667 L64.0163907,3.90568655 C64.0163907,3.72260657 64.074144,3.5751277 64.1896523,3.46324549 C64.3051606,3.35136329 64.4533104,3.29542302 64.634106,3.29542302 C64.8048574,3.29542302 64.9454741,3.34882055 65.0559603,3.4556172 C65.1664465,3.56241385 65.2216887,3.70734999 65.2216887,3.89042996 L65.2216887,4.62274619 C65.4426612,4.18538847 65.7490047,3.84974689 66.1407285,3.61581137 C66.5324523,3.38187585 66.9844345,3.26490985 67.4966887,3.26490985 C68.6417276,3.26490985 69.3900093,3.75311578 69.7415563,4.7295423 C69.9524845,4.28201348 70.2738941,3.92602999 70.7057947,3.66158114 C71.1376953,3.39713229 71.6298537,3.26490985 72.1822848,3.26490985 C73.8094452,3.26490985 74.6230132,4.2464072 74.6230132,6.20943135 Z M83.1203642,9.29126214 C83.2007178,9.38280212 83.240894,9.49976813 83.240894,9.64216366 C83.240894,9.8964414 83.0651232,10.1303734 82.7135761,10.3439667 C82.3519849,10.55756 81.970311,10.7177526 81.568543,10.8245492 C81.166775,10.9313459 80.7750571,10.9847434 80.3933775,10.9847434 C79.2583828,10.9847434 78.3619514,10.6440164 77.7040563,9.96255201 C77.0461612,9.28108767 76.7172185,8.34027415 76.7172185,7.14008322 C76.7172185,6.37725 76.8628573,5.7034241 77.1541391,5.1185853 C77.4454209,4.5337465 77.8547159,4.07859617 78.3820364,3.75312067 C78.9093569,3.42764516 79.5094889,3.26490985 80.1824503,3.26490985 C81.1366494,3.26490985 81.8949751,3.58020951 82.4574503,4.21081831 C83.0199255,4.8414271 83.3011589,5.69578749 83.3011589,6.7739251 C83.3011589,6.9773473 83.2609827,7.12482617 83.1806291,7.21636616 C83.1002755,7.30790614 82.9697029,7.35367545 82.7889073,7.35367545 L77.9375828,7.35367545 C78.0279806,9.1031063 78.8465706,9.9778086 80.3933775,9.9778086 C80.7851013,9.9778086 81.121577,9.92441107 81.4028146,9.81761442 C81.6840522,9.71081777 81.9853737,9.56588164 82.3067881,9.38280166 C82.5679373,9.23023502 82.7437081,9.15395284 82.8341059,9.15395284 C82.9445922,9.15395284 83.0400106,9.19972215 83.1203642,9.29126214 Z M78.6532285,4.83633842 C78.2665268,5.2431828 78.0380246,5.81784187 77.9677152,6.56033287 L82.2314569,6.56033287 C82.2113685,5.80767076 82.0255536,5.23046895 81.6740066,4.82871012 C81.3224596,4.4269513 80.8303012,4.2260749 80.1975165,4.2260749 C79.5546877,4.2260749 79.0399302,4.42949404 78.6532285,4.83633842 Z M89.5837748,4.76768377 C89.4230676,4.61003157 89.3427152,4.40406969 89.3427152,4.14979196 C89.3427152,3.89551422 89.4230676,3.68955234 89.5837748,3.53190014 C89.744482,3.37424794 89.945363,3.29542302 90.1864238,3.29542302 C90.4174404,3.29542302 90.6107884,3.37424794 90.7664735,3.53190014 C90.9221586,3.68955234 91,3.89551422 91,4.14979196 C91,4.40406969 90.9221586,4.61003157 90.7664735,4.76768377 C90.6107884,4.92533597 90.4174404,5.00416089 90.1864238,5.00416089 C89.945363,5.00416089 89.744482,4.92533597 89.5837748,4.76768377 Z M89.5837748,10.7177531 C89.4230676,10.5601009 89.3427152,10.354139 89.3427152,10.0998613 C89.3427152,9.84558356 89.4230676,9.63707895 89.5837748,9.47434119 C89.744482,9.31160344 89.945363,9.23023578 90.1864238,9.23023578 C90.4174404,9.23023578 90.6107884,9.31160344 90.7664735,9.47434119 C90.9221586,9.63707895 91,9.84558356 91,10.0998613 C91,10.354139 90.9221586,10.5601009 90.7664735,10.7177531 C90.6107884,10.8754053 90.4174404,10.9542302 90.1864238,10.9542302 C89.945363,10.9542302 89.744482,10.8754053 89.5837748,10.7177531 Z"/>
</svg>
